<?xml version="1.0" standalone="no"?>
<!DOCTYPE svg PUBLIC "-//W3C//DTD SVG 20010904//EN"
 "http://www.w3.org/TR/2001/REC-SVG-20010904/DTD/svg10.dtd">
<svg version="1.0" xmlns="http://www.w3.org/2000/svg"
 width="360.000000pt" height="360.000000pt" viewBox="0 0 360.000000 360.000000"
 preserveAspectRatio="xMidYMid meet">
<metadata>
Created by potrace 1.14, written by Peter Selinger 2001-2017
</metadata>
<g transform="translate(0.000000,360.000000) scale(0.100000,-0.100000)"
fill="#000000" stroke="none">
<path d="M962 2743 c3 -178 3 -178 34 -233 67 -119 145 -150 372 -150 l154 0
-4 183 c-3 165 -5 186 -25 223 -31 58 -79 103 -138 130 -46 22 -63 24 -223 24
l-174 0 4 -177z"/>
<path d="M2267 2906 c-85 -31 -156 -114 -176 -207 -6 -28 -11 -115 -11 -194
l0 -145 -163 0 c-186 0 -230 -10 -295 -66 -23 -19 -53 -60 -69 -92 -27 -55
-28 -64 -31 -229 l-4 -173 164 0 c192 0 232 10 304 73 26 23 57 63 70 92 22
46 24 63 24 222 l0 171 178 4 c200 4 222 10 295 77 76 70 90 118 95 314 l4
167 -173 0 c-119 -1 -186 -5 -212 -14z"/>
<path d="M402 2178 c3 -179 4 -184 30 -230 16 -25 47 -63 70 -82 63 -54 116
-66 300 -66 l158 0 0 -158 c0 -202 11 -245 83 -317 75 -75 113 -85 313 -85
l162 0 4 -177 c3 -169 5 -180 30 -228 33 -62 80 -108 138 -134 40 -18 66 -21
218 -21 l172 0 0 173 c0 151 -3 177 -21 217 -26 58 -72 105 -134 138 -48 25
-59 27 -227 30 l-178 4 0 162 c0 200 -10 238 -85 313 -72 72 -115 83 -317 83
l-158 0 0 158 c0 202 -11 245 -83 317 -76 75 -113 85 -315 85 l-164 0 4 -182z"/>
<path d="M2844 2349 c-64 -18 -127 -72 -161 -138 l-33 -63 0 -174 0 -174 -165
0 c-141 0 -172 -3 -219 -20 -66 -25 -124 -79 -157 -146 -21 -45 -24 -64 -27
-221 l-4 -173 174 0 175 0 61 31 c68 34 105 72 136 139 17 38 21 71 24 217 l4
171 177 4 c158 3 180 5 217 25 65 35 100 69 128 125 25 50 26 59 26 230 l0
178 -162 -1 c-90 0 -177 -5 -194 -10z"/>
</g>
</svg>
